<mxfile host="app.diagrams.net" agent="Mozilla/5.0 (X11; Linux x86_64) AppleWebKit/537.36 (KHTML, like Gecko) Chrome/128.0.0.0 Safari/537.36" version="24.7.6">
  <diagram name="Page-1" id="BR9VYoIZgUl5s9Ba_shH">
    <mxGraphModel dx="1120" dy="489" grid="1" gridSize="10" guides="1" tooltips="1" connect="1" arrows="1" fold="1" page="1" pageScale="1" pageWidth="827" pageHeight="1169" math="0" shadow="0">
      <root>
        <mxCell id="0" />
        <mxCell id="1" parent="0" />
        <mxCell id="lAtx7cbA0oKDQ4QJ7j54-14" value="" style="group" vertex="1" connectable="0" parent="1">
          <mxGeometry x="21.999999999999986" y="20" width="782.5" height="420" as="geometry" />
        </mxCell>
        <mxCell id="lAtx7cbA0oKDQ4QJ7j54-2" value="" style="rounded=0;whiteSpace=wrap;html=1;" vertex="1" parent="lAtx7cbA0oKDQ4QJ7j54-14">
          <mxGeometry x="2.500000000000014" width="780" height="420" as="geometry" />
        </mxCell>
        <mxCell id="lAtx7cbA0oKDQ4QJ7j54-3" value="" style="rounded=0;whiteSpace=wrap;html=1;rotation=90;" vertex="1" parent="lAtx7cbA0oKDQ4QJ7j54-14">
          <mxGeometry x="-87.49999999999999" y="87.5" width="420" height="245" as="geometry" />
        </mxCell>
        <mxCell id="lAtx7cbA0oKDQ4QJ7j54-4" value="" style="rounded=0;whiteSpace=wrap;html=1;" vertex="1" parent="lAtx7cbA0oKDQ4QJ7j54-14">
          <mxGeometry x="246.5" width="536" height="60" as="geometry" />
        </mxCell>
        <mxCell id="lAtx7cbA0oKDQ4QJ7j54-19" value="" style="ellipse;whiteSpace=wrap;html=1;aspect=fixed;" vertex="1" parent="lAtx7cbA0oKDQ4QJ7j54-14">
          <mxGeometry x="718" y="12.5" width="35" height="35" as="geometry" />
        </mxCell>
        <mxCell id="lAtx7cbA0oKDQ4QJ7j54-35" value="" style="group" vertex="1" connectable="0" parent="lAtx7cbA0oKDQ4QJ7j54-14">
          <mxGeometry x="13.25" y="105" width="218.5" height="40" as="geometry" />
        </mxCell>
        <mxCell id="lAtx7cbA0oKDQ4QJ7j54-20" value="" style="rounded=0;whiteSpace=wrap;html=1;" vertex="1" parent="lAtx7cbA0oKDQ4QJ7j54-35">
          <mxGeometry y="5" width="218.5" height="30" as="geometry" />
        </mxCell>
        <mxCell id="lAtx7cbA0oKDQ4QJ7j54-27" value="" style="ellipse;whiteSpace=wrap;html=1;strokeWidth=2;fillWeight=2;hachureGap=8;fillColor=#990000;fillStyle=dots;sketch=1;" vertex="1" parent="lAtx7cbA0oKDQ4QJ7j54-35">
          <mxGeometry x="184.75" y="10" width="22" height="20" as="geometry" />
        </mxCell>
        <mxCell id="lAtx7cbA0oKDQ4QJ7j54-28" value="" style="rhombus;whiteSpace=wrap;html=1;strokeWidth=2;fillWeight=-1;hachureGap=8;fillStyle=cross-hatch;fillColor=#006600;sketch=1;" vertex="1" parent="lAtx7cbA0oKDQ4QJ7j54-35">
          <mxGeometry x="144.75" y="10" width="30" height="20" as="geometry" />
        </mxCell>
        <mxCell id="lAtx7cbA0oKDQ4QJ7j54-29" value="&lt;font style=&quot;font-size: 14px;&quot;&gt;sample........&lt;/font&gt;" style="text;strokeColor=none;fillColor=none;html=1;fontSize=24;fontStyle=1;verticalAlign=middle;align=center;" vertex="1" parent="lAtx7cbA0oKDQ4QJ7j54-35">
          <mxGeometry x="4.750000000000014" width="100" height="40" as="geometry" />
        </mxCell>
        <mxCell id="lAtx7cbA0oKDQ4QJ7j54-51" value="" style="group" vertex="1" connectable="0" parent="lAtx7cbA0oKDQ4QJ7j54-14">
          <mxGeometry x="13.25" y="360" width="218.5" height="40" as="geometry" />
        </mxCell>
        <mxCell id="lAtx7cbA0oKDQ4QJ7j54-52" value="" style="rounded=0;whiteSpace=wrap;html=1;" vertex="1" parent="lAtx7cbA0oKDQ4QJ7j54-51">
          <mxGeometry y="5" width="218.5" height="30" as="geometry" />
        </mxCell>
        <mxCell id="lAtx7cbA0oKDQ4QJ7j54-53" value="" style="ellipse;whiteSpace=wrap;html=1;strokeWidth=2;fillWeight=2;hachureGap=8;fillColor=#990000;fillStyle=dots;sketch=1;" vertex="1" parent="lAtx7cbA0oKDQ4QJ7j54-51">
          <mxGeometry x="184.75" y="10" width="22" height="20" as="geometry" />
        </mxCell>
        <mxCell id="lAtx7cbA0oKDQ4QJ7j54-54" value="" style="rhombus;whiteSpace=wrap;html=1;strokeWidth=2;fillWeight=-1;hachureGap=8;fillStyle=cross-hatch;fillColor=#006600;sketch=1;" vertex="1" parent="lAtx7cbA0oKDQ4QJ7j54-51">
          <mxGeometry x="144.75" y="10" width="30" height="20" as="geometry" />
        </mxCell>
        <mxCell id="lAtx7cbA0oKDQ4QJ7j54-55" value="&lt;font style=&quot;font-size: 14px;&quot;&gt;sample........&lt;/font&gt;" style="text;strokeColor=none;fillColor=none;html=1;fontSize=24;fontStyle=1;verticalAlign=middle;align=center;" vertex="1" parent="lAtx7cbA0oKDQ4QJ7j54-51">
          <mxGeometry x="4.750000000000014" width="100" height="40" as="geometry" />
        </mxCell>
        <mxCell id="lAtx7cbA0oKDQ4QJ7j54-46" value="" style="group" vertex="1" connectable="0" parent="lAtx7cbA0oKDQ4QJ7j54-14">
          <mxGeometry x="13.25" y="310" width="218.5" height="40" as="geometry" />
        </mxCell>
        <mxCell id="lAtx7cbA0oKDQ4QJ7j54-47" value="" style="rounded=0;whiteSpace=wrap;html=1;" vertex="1" parent="lAtx7cbA0oKDQ4QJ7j54-46">
          <mxGeometry y="5" width="218.5" height="30" as="geometry" />
        </mxCell>
        <mxCell id="lAtx7cbA0oKDQ4QJ7j54-48" value="" style="ellipse;whiteSpace=wrap;html=1;strokeWidth=2;fillWeight=2;hachureGap=8;fillColor=#990000;fillStyle=dots;sketch=1;" vertex="1" parent="lAtx7cbA0oKDQ4QJ7j54-46">
          <mxGeometry x="184.75" y="10" width="22" height="20" as="geometry" />
        </mxCell>
        <mxCell id="lAtx7cbA0oKDQ4QJ7j54-49" value="" style="rhombus;whiteSpace=wrap;html=1;strokeWidth=2;fillWeight=-1;hachureGap=8;fillStyle=cross-hatch;fillColor=#006600;sketch=1;" vertex="1" parent="lAtx7cbA0oKDQ4QJ7j54-46">
          <mxGeometry x="144.75" y="10" width="30" height="20" as="geometry" />
        </mxCell>
        <mxCell id="lAtx7cbA0oKDQ4QJ7j54-50" value="&lt;font style=&quot;font-size: 14px;&quot;&gt;sample........&lt;/font&gt;" style="text;strokeColor=none;fillColor=none;html=1;fontSize=24;fontStyle=1;verticalAlign=middle;align=center;" vertex="1" parent="lAtx7cbA0oKDQ4QJ7j54-46">
          <mxGeometry x="4.750000000000014" width="100" height="40" as="geometry" />
        </mxCell>
        <mxCell id="lAtx7cbA0oKDQ4QJ7j54-41" value="" style="group" vertex="1" connectable="0" parent="lAtx7cbA0oKDQ4QJ7j54-14">
          <mxGeometry x="13.25" y="210" width="218.5" height="40" as="geometry" />
        </mxCell>
        <mxCell id="lAtx7cbA0oKDQ4QJ7j54-42" value="" style="rounded=0;whiteSpace=wrap;html=1;" vertex="1" parent="lAtx7cbA0oKDQ4QJ7j54-41">
          <mxGeometry y="5" width="218.5" height="30" as="geometry" />
        </mxCell>
        <mxCell id="lAtx7cbA0oKDQ4QJ7j54-43" value="" style="ellipse;whiteSpace=wrap;html=1;strokeWidth=2;fillWeight=2;hachureGap=8;fillColor=#990000;fillStyle=dots;sketch=1;" vertex="1" parent="lAtx7cbA0oKDQ4QJ7j54-41">
          <mxGeometry x="184.75" y="10" width="22" height="20" as="geometry" />
        </mxCell>
        <mxCell id="lAtx7cbA0oKDQ4QJ7j54-44" value="" style="rhombus;whiteSpace=wrap;html=1;strokeWidth=2;fillWeight=-1;hachureGap=8;fillStyle=cross-hatch;fillColor=#006600;sketch=1;" vertex="1" parent="lAtx7cbA0oKDQ4QJ7j54-41">
          <mxGeometry x="144.75" y="10" width="30" height="20" as="geometry" />
        </mxCell>
        <mxCell id="lAtx7cbA0oKDQ4QJ7j54-45" value="&lt;font style=&quot;font-size: 14px;&quot;&gt;sample........&lt;/font&gt;" style="text;strokeColor=none;fillColor=none;html=1;fontSize=24;fontStyle=1;verticalAlign=middle;align=center;" vertex="1" parent="lAtx7cbA0oKDQ4QJ7j54-41">
          <mxGeometry x="4.750000000000014" width="100" height="40" as="geometry" />
        </mxCell>
        <mxCell id="lAtx7cbA0oKDQ4QJ7j54-36" value="" style="group" vertex="1" connectable="0" parent="lAtx7cbA0oKDQ4QJ7j54-14">
          <mxGeometry x="13.25" y="160" width="218.5" height="40" as="geometry" />
        </mxCell>
        <mxCell id="lAtx7cbA0oKDQ4QJ7j54-37" value="" style="rounded=0;whiteSpace=wrap;html=1;" vertex="1" parent="lAtx7cbA0oKDQ4QJ7j54-36">
          <mxGeometry y="5" width="218.5" height="30" as="geometry" />
        </mxCell>
        <mxCell id="lAtx7cbA0oKDQ4QJ7j54-38" value="" style="ellipse;whiteSpace=wrap;html=1;strokeWidth=2;fillWeight=2;hachureGap=8;fillColor=#990000;fillStyle=dots;sketch=1;" vertex="1" parent="lAtx7cbA0oKDQ4QJ7j54-36">
          <mxGeometry x="184.75" y="10" width="22" height="20" as="geometry" />
        </mxCell>
        <mxCell id="lAtx7cbA0oKDQ4QJ7j54-39" value="" style="rhombus;whiteSpace=wrap;html=1;strokeWidth=2;fillWeight=-1;hachureGap=8;fillStyle=cross-hatch;fillColor=#006600;sketch=1;" vertex="1" parent="lAtx7cbA0oKDQ4QJ7j54-36">
          <mxGeometry x="144.75" y="10" width="30" height="20" as="geometry" />
        </mxCell>
        <mxCell id="lAtx7cbA0oKDQ4QJ7j54-40" value="&lt;font style=&quot;font-size: 14px;&quot;&gt;sample........&lt;/font&gt;" style="text;strokeColor=none;fillColor=none;html=1;fontSize=24;fontStyle=1;verticalAlign=middle;align=center;" vertex="1" parent="lAtx7cbA0oKDQ4QJ7j54-36">
          <mxGeometry x="4.750000000000014" width="100" height="40" as="geometry" />
        </mxCell>
        <mxCell id="lAtx7cbA0oKDQ4QJ7j54-60" value="" style="group" vertex="1" connectable="0" parent="lAtx7cbA0oKDQ4QJ7j54-14">
          <mxGeometry x="13.25" y="260" width="218.5" height="40" as="geometry" />
        </mxCell>
        <mxCell id="lAtx7cbA0oKDQ4QJ7j54-61" value="" style="rounded=0;whiteSpace=wrap;html=1;" vertex="1" parent="lAtx7cbA0oKDQ4QJ7j54-60">
          <mxGeometry y="5" width="218.5" height="30" as="geometry" />
        </mxCell>
        <mxCell id="lAtx7cbA0oKDQ4QJ7j54-62" value="" style="ellipse;whiteSpace=wrap;html=1;strokeWidth=2;fillWeight=2;hachureGap=8;fillColor=#990000;fillStyle=dots;sketch=1;" vertex="1" parent="lAtx7cbA0oKDQ4QJ7j54-60">
          <mxGeometry x="184.75" y="10" width="22" height="20" as="geometry" />
        </mxCell>
        <mxCell id="lAtx7cbA0oKDQ4QJ7j54-63" value="" style="rhombus;whiteSpace=wrap;html=1;strokeWidth=2;fillWeight=-1;hachureGap=8;fillStyle=cross-hatch;fillColor=#006600;sketch=1;" vertex="1" parent="lAtx7cbA0oKDQ4QJ7j54-60">
          <mxGeometry x="144.75" y="10" width="30" height="20" as="geometry" />
        </mxCell>
        <mxCell id="lAtx7cbA0oKDQ4QJ7j54-64" value="&lt;font style=&quot;font-size: 14px;&quot;&gt;sample........&lt;/font&gt;" style="text;strokeColor=none;fillColor=none;html=1;fontSize=24;fontStyle=1;verticalAlign=middle;align=center;" vertex="1" parent="lAtx7cbA0oKDQ4QJ7j54-60">
          <mxGeometry x="4.750000000000014" width="100" height="40" as="geometry" />
        </mxCell>
        <mxCell id="lAtx7cbA0oKDQ4QJ7j54-15" value="" style="group" vertex="1" connectable="0" parent="1">
          <mxGeometry x="21.999999999999986" y="550" width="782.5" height="420" as="geometry" />
        </mxCell>
        <mxCell id="lAtx7cbA0oKDQ4QJ7j54-16" value="" style="rounded=0;whiteSpace=wrap;html=1;" vertex="1" parent="lAtx7cbA0oKDQ4QJ7j54-15">
          <mxGeometry x="2.500000000000014" width="780" height="420" as="geometry" />
        </mxCell>
        <mxCell id="lAtx7cbA0oKDQ4QJ7j54-17" value="" style="rounded=0;whiteSpace=wrap;html=1;rotation=90;" vertex="1" parent="lAtx7cbA0oKDQ4QJ7j54-15">
          <mxGeometry x="-87.49999999999999" y="87.5" width="420" height="245" as="geometry" />
        </mxCell>
        <mxCell id="lAtx7cbA0oKDQ4QJ7j54-18" value="" style="rounded=0;whiteSpace=wrap;html=1;" vertex="1" parent="lAtx7cbA0oKDQ4QJ7j54-15">
          <mxGeometry x="246.5" width="536" height="60" as="geometry" />
        </mxCell>
      </root>
    </mxGraphModel>
  </diagram>
</mxfile>
